<svg width="170" height="170" fill="none" xmlns="http://www.w3.org/2000/svg"><path d="M85 170c46.944 0 85-38.056 85-85S131.944 0 85 0 0 38.056 0 85s38.056 85 85 85z" fill="#E3DDD3"/><path d="M40.49 102.146c-.217.22-.51.266-.883.14-5.073-1.658-10.155-3.091-15.372-4.22-.324-.067-.477.112-.455.536.21 3.351.532 6.662.97 9.988.06.409.244.653.55.733 2.56.672 5.102 1.413 7.627 2.208.36.113.659.344.892.688.235.344.38.763.435 1.247.562 4.467 1.26 8.909 2.285 13.297.106.459.095.785-.03.974-.123.188-.352.219-.68.093-2.305-.883-4.612-1.762-6.919-2.634-.277-.104-.355.033-.235.41 2.569 7.623 5.835 14.773 9.986 21.663.231.371.342.608.335.717-.006.109-.13.073-.373-.104a109.645 109.645 0 01-7.799-6.507 40.736 40.736 0 01-.766-.75 43.26 43.26 0 01-.883-.905C14.579 123.736 7.313 103.821 8.068 82.198c.024-.446.16-.812.406-1.1.244-.287.568-.46.968-.508 10.837-1.026 21.107.685 31.444 3.919.384.126.666.375.843.736.178.364.234.806.17 1.316-.567 4.827-.92 9.633-1.07 14.489-.012.512-.125.876-.34 1.094l.002.002zM74.21 115.723c-.22.173-.51.184-.872.037-4.947-2.035-9.869-4.125-14.802-6.193-.311-.129-.473.015-.489.435a220.891 220.891 0 00-.033 9.926c.011.408.171.668.477.783 2.523.954 5.05 1.9 7.582 2.825.358.131.644.364.853.697.209.333.32.725.33 1.176.145 4.136.405 8.246.793 12.367.045.431-.02.739-.19.925-.172.189-.431.233-.776.131a334.592 334.592 0 01-7.295-2.259c-.293-.095-.413.047-.36.429.447 3.024.935 6.038 1.546 9.036.073.364.25.588.532.672a158.85 158.85 0 0013.636 3.333c.338.062.624.224.853.48.229.255.373.577.435.96a146.958 146.958 0 002.08 10.419c.085.357.06.628-.07.815-.134.186-.356.264-.673.233-8.277-.984-16.056-3.014-23.751-6.212-.28-.122-.547-.333-.8-.628a3.765 3.765 0 01-.623-1.038c-8.493-21.599-10.801-44.6-8.09-67.585.066-.51.228-.872.486-1.085.255-.211.575-.247.95-.105 9.944 3.892 19.386 8.779 28.842 13.714.357.187.621.464.79.828.169.364.224.772.166 1.223-.51 4.238-.896 8.47-1.165 12.731-.025.45-.147.759-.366.93h.004zM88.29 162.18c-2.478-1.088-4.611-2.861-6.198-5.045-1.701-2.341-2.771-5.103-3.155-7.971a146.081 146.081 0 01-.329-2.56c-.047-.389.018-.677.191-.861.173-.185.438-.247.786-.185 3.908.659 7.804 1.172 11.749 1.529.349.027.633.147.846.358.213.21.333.486.36.825.05.644.077.963.133 1.6.066.772.324 1.403.757 1.88.435.479.941.712 1.523.708.58-.005 1.043-.22 1.398-.637.353-.417.511-.943.467-1.587-.053-.781-.495-1.576-1.337-2.363-1.63-1.529-3.514-2.872-5.286-4.274-2.371-1.878-4.613-3.941-6.616-6.2-1.934-2.184-3.441-4.74-4.593-7.419-1.37-3.182-1.914-6.582-1.8-9.822.106-3.035.732-6.218 2.643-8.905a9.056 9.056 0 016.514-3.757c3.204-.315 6.257.646 9.045 1.842a35.973 35.973 0 018.843 5.421c2.24 1.873 4.422 4.163 5.583 6.715 1.166 2.557 1.444 4.512 1.426 7.456-.058.586-.085.879-.14 1.461-.029.308-.16.541-.389.699-.231.157-.535.222-.91.188a131.1 131.1 0 01-12.435-1.895c-.37-.08-.66-.246-.864-.499-.204-.253-.3-.564-.284-.928.034-.81.054-1.216.094-2.032.04-.786-.136-1.485-.533-2.109-.398-.621-.942-1.043-1.634-1.249-.693-.209-1.255-.102-1.68.324-.43.426-.665 1.112-.705 2.042-.046 1.096.338 2.283 1.157 3.461 1.352 1.942 3.161 3.642 4.962 5.191 2.433 2.093 4.951 4.103 7.433 6.127 1.638 1.336 2.886 2.709 3.752 4.158.866 1.452 1.208 3.129 1.17 5.013-.069 3.393-1.787 6.687-4.049 9.148-2.671 2.904-6.275 4.482-9.973 5.141-2.578.46-5.44.098-7.924-.992l.002.003zM155.274 119.349c.18.093.226.233.138.417-.991 2.075-1.523 3.093-2.66 5.079-.102.178-.291.335-.562.473a3.33 3.33 0 01-.977.304c-3.192.504-6.383.93-9.593 1.292-.326.035-.524.142-.591.326-2.777 7.405-5.978 14.528-9.964 21.367a2.804 2.804 0 01-.452.544c-.2.195-.424.38-.673.548a106.144 106.144 0 01-8.816 5.224c-.271.138-.473.184-.602.144-.131-.042-.175-.168-.131-.377 1.847-8.832 3.503-17.7 5.186-26.563.042-.226-.1-.339-.43-.341a155.493 155.493 0 01-9.509-.415c-.384-.034-.677-.149-.875-.342-.198-.193-.28-.444-.244-.75.351-2.896.737-5.785 1.168-8.67.046-.309.195-.531.446-.662.251-.128.575-.153.97-.073 12.32 2.301 24.781 2.841 37.289 2.366.405-.02.698.018.877.111l.005-.002zM34.592 32.497c-.156.213-.298.349-.431.406-2.165.961-3.221 1.478-5.357 2.597-.111.057-.24.21-.382.459-1.157 2-2.24 4.072-3.224 6.162-.126.264-.126.375 0 .327 1.24-.473 1.892-.695 3.1-1.117.142-.048.215.005.222.162.006.158-.054.402-.182.73a162.876 162.876 0 00-3.268 9.547c-.105.353-.231.64-.378.854-.146.218-.3.34-.453.369-1.316.242-2.06.373-3.445.677-.14.03-.258.19-.351.481a121.628 121.628 0 00-4.205 18.938c-.047.368-.131.661-.255.874-.125.216-.274.324-.447.331-2.355.084-3.532.184-5.85.495-.17.022-.293-.06-.366-.246-.071-.187-.087-.455-.038-.806 2.584-16.477 9.573-30.932 20.934-43.148a47.467 47.467 0 011.057-1.061c2.544-2.419 5.232-4.702 8.08-6.757.108-.078.147-.06.119.053-.03.113-.123.31-.28.59-1.519 2.703-2.864 5.481-4.163 8.298-.14.31-.286.574-.44.785h.003zM24.979 74.32c-.067-.234-.076-.554-.027-.951 2.366-17.514 6.833-34.725 15.003-50.47.151-.281.305-.525.453-.73.15-.201.28-.343.389-.419a63.274 63.274 0 013.779-2.459c.113-.069.168-.037.164.096-.005.133-.067.355-.187.661-5.01 13.173-8.243 26.849-10.758 40.696-.063.353-.02.533.126.542 2.442.19 4.84.444 7.269.759.175.024.297.173.36.441.064.269.062.628-.003 1.074a862.54 862.54 0 00-1.727 12.634c-.058.452-.153.796-.286 1.025-.133.23-.289.32-.466.268-4.55-1.227-9.074-2.168-13.743-2.78-.167-.02-.282-.149-.349-.386h.003zM44.804 78.66c-.057-.303-.057-.691.005-1.166a3671.334 3671.334 0 013.112-23.083c.054-.397.078-.66.074-.794.235-12.06.26-24.266 1.909-36.238.007-.087.033-.227.082-.418.133-.523.311-.838.533-.95a65.517 65.517 0 014.338-1.99c.247-.104.349.164.302.814-.462 5.455-.788 10.918-1.097 16.382-.009.24.02.357.085.35.064-.006.122-.133.173-.381 1.05-5.726 2.076-11.455 3.07-17.192.133-.714.325-1.114.578-1.21 1.798-.67 2.71-.98 4.557-1.541.15-.045.247.05.291.29.047.24.042.595-.013 1.066-2.078 14.069-4.878 27.996-8.063 41.854-.04.138-.085.417-.136.841A1323.91 1323.91 0 0151.4 79.857c-.07.502-.17.88-.304 1.128-.133.248-.28.341-.442.277a108.27 108.27 0 00-5.517-2.061c-.164-.058-.275-.238-.335-.54l.002-.002zM57.75 84.052c-.045-.342-.025-.78.055-1.31 3.513-23.438 5.617-46.963 6.252-70.654.011-.408.056-.737.136-.99.08-.25.184-.397.317-.432a65.57 65.57 0 014.491-1.099c.134-.029.245.073.329.3.084.228.135.561.149.996.752 25.07-1.268 50.054-5.309 74.788-.093.558-.213.973-.355 1.245-.144.276-.293.373-.448.298a196.807 196.807 0 00-5.313-2.519c-.158-.073-.258-.282-.302-.623h-.002z" fill="#E24B2C"/><path d="M79.647 8.45c.049-.274.142-.416.284-.427a66.214 66.214 0 014.711-.196c.142 0 .276.138.398.418.124.28.222.668.293 1.162 3.892 28.36 2.229 56.97-3.637 84.939-.133.621-.286 1.09-.453 1.396-.168.31-.33.424-.484.344-1.958-1.008-3.912-2.022-5.865-3.036-.282-.147-.342-.79-.189-1.935a314.54 314.54 0 002.382-39.609c-.009-.253-.046-.386-.117-.402-.071-.015-.116.145-.136.473-.846 12.753-2.46 25.373-4.744 37.947-.111.588-.244 1.03-.395 1.318-.154.29-.305.397-.458.317a446.644 446.644 0 00-5.142-2.614c-.155-.078-.248-.3-.28-.666-.03-.364 0-.83.098-1.393 4.205-25.12 6.095-50.436 5.089-75.896-.02-.44.004-.792.069-1.056.064-.262.166-.408.302-.433a66.964 66.964 0 015.164-.763c.257-.03.457.38.597 1.238 1.865 11.362 3.04 22.766 3.588 34.265.013.333.055.506.124.52.069.013.109-.147.12-.475.25-11.475-.133-22.888-1.31-34.308-.051-.475-.053-.85-.004-1.127h-.005z" fill="#E24B2C"/><path d="M86.112 91.64c-.357-6.914.49-14.077 1.301-21.04 1.534-13.475 2.027-26.95 1.412-40.497-.262-5.67-.75-11.695.311-17.107.382-1.946.98-5.894 3.817-5.699 1.263.087 2.628 1.152 3.991 3.167 1.81 2.671 2.94 5.71 3.948 8.732 1.472 4.414 2.167 9.12 2.684 13.783.162 1.715.233 2.583.355 4.331.045.62.029 1.097-.042 1.43-.071.332-.189.481-.351.441-2.196-.521-3.29-.77-5.461-1.231-.16-.034-.293-.236-.4-.602-.107-.364-.173-.852-.204-1.456-.091-1.81-.147-2.71-.276-4.484-.117-1.605-.324-2.896-.599-3.882-.275-.983-.57-1.495-.88-1.544-.308-.049-.508.384-.614 1.298-.107.919-.098 2.164.009 3.755.841 14.011.373 27.96-1.319 41.894-.229 1.778-.333 3.238-.295 4.38.037 1.146.208 1.78.532 1.903.325.12.671-.32 1.03-1.33.36-1.007.669-2.41.9-4.2.304-2.313.568-4.634.786-6.955.055-.57.009-.877-.133-.921l-.282-.089c-.165-.05-.276-.282-.336-.688-.06-.406-.062-.938-.006-1.597.404-5.289.646-10.566.724-15.867.006-.628.053-1.11.146-1.447.093-.335.22-.484.384-.446 2.202.517 4.4 1.065 6.589 1.633.167.042.3.262.4.653.1.392.153.912.158 1.558a219.276 219.276 0 01-1.623 26.356c-.753 5.128-1.705 10.312-3.61 15.094-1.268 3.182-2.709 6.436-5.06 8.979-1.692 1.828-3.432 2.405-4.729 1.688-3.106-1.717-3.095-6.779-3.261-9.992h.004zM119.183 15.548c.2.33.416.76.64 1.289a139.273 139.273 0 015.364 15.793c.157.595.235 1.052.237 1.365.002.315-.071.448-.217.4-1.479-.489-2.22-.726-3.712-1.19-.127-.04-.134.2-.023.721 4.978 24.883 3.49 50.105-3.57 74.44-.202.668-.413 1.183-.628 1.54-.215.36-.411.519-.579.482a88.259 88.259 0 01-5.666-1.445c-.164-.046-.235-.275-.215-.686.02-.406.128-.949.321-1.62 6.772-24.36 8.488-49.495 4.33-74.468-.091-.522-.205-.8-.331-.835a173.794 173.794 0 00-3.692-.99c-.151-.037-.295-.241-.438-.607-.142-.367-.262-.85-.366-1.45a174.2 174.2 0 00-3.661-15.988c-.155-.54-.244-.95-.26-1.234-.015-.282.04-.408.174-.37 4.051 1.191 7.939 2.6 11.811 4.278.122.055.284.248.484.58l-.003-.005z" fill="#E24B2C"/><path d="M133.082 110.874c1.019-3.471 1.853-6.999 2.557-10.545.045-.189.065-.38.06-.577-.004-.196-.044-.3-.115-.309a171.97 171.97 0 01-3.173-.466c-.071-.01-.153.076-.244.26s-.16.37-.202.561c-.939 3.573-2.054 7.101-3.29 10.581-.444 1.307-.873 1.933-1.25 1.886a95.456 95.456 0 01-5.884-.896c-.395-.071-.304-.857.236-2.364 10.361-29.314 12.717-61.844.772-91.072-.397-.94-.488-1.342-.248-1.22a66.856 66.856 0 014.551 2.536c.229.138.635.681 1.199 1.645 15.605 27.483 20.301 59.64 12.124 90.271-.073.215-.111.324-.187.537-.373 1.074-.746 1.6-1.092 1.58a143.774 143.774 0 01-5.894-.424c-.362-.034-.325-.69.077-1.984h.003zm2.992-32.705c.666.137.999.204 1.668.34.166.032.242-.252.224-.85a141.774 141.774 0 00-2.327-25.838c-.08-.368-.142-.559-.186-.572-.045-.014-.047.16-.011.514.981 8.513 1.114 16.932.501 25.478-.031.593.011.903.129.925l.002.003z" fill="#E24B2C"/><path d="M141.578 31.144c2.689 2.913 5.224 6.011 7.606 9.184 3.075 4.095 5.733 8.617 7.735 13.217 1.814 4.168 3.361 8.82 3.683 13.406.216 3.082.276 6.265-.828 9.238-.79 2.133-2.013 3.143-3.397 2.887-.801-.148-1.203-.222-2.004-.372-.142-.027-.209.235-.207.792-.113 11.07-1.909 21.649-5.486 32.13-.215.602-.444 1.074-.673 1.414-.23.341-.437.512-.614.51a154.093 154.093 0 01-5.968-.149c-.176-.006-.247-.188-.218-.548.029-.357.153-.85.371-1.473 9.649-29.26 7.247-61.052-8.989-87.508a16.186 16.186 0 01-.642-1.072c-.118-.229-.124-.306-.016-.229a72.816 72.816 0 015.067 3.904c1.634 1.435 3.115 3.082 4.576 4.666l.004.003zm11.48 26.556c-.091-1.292-.53-3.353-1.514-5.97-.788-2.092-1.66-4.214-2.808-6.175-.862-1.474-1.526-2.315-1.958-2.521l-.369-.176c-.113-.053-.064.151.142.62 2.08 4.9 3.741 9.823 5.064 14.978.125.513.249.793.378.832.168.054.253.08.421.132.498.155.733-.431.64-1.72h.004z" fill="#E24B2C"/></svg>