<svg width="133" height="137" fill="none" xmlns="http://www.w3.org/2000/svg"><path d="M33.098 0c16.716 0 30.587 12.114 33.24 28.001C68.99 12.113 82.862.001 99.578 0h32.314a.78.78 0 01.671 1.183l-4.954 8.186a48.157 48.157 0 000 49.899l4.954 8.186a.762.762 0 01.092.57.762.762 0 01-.092.569l-4.954 8.187a48.156 48.156 0 000 49.898l4.954 8.187a.78.78 0 01-.671 1.182H99.578c-16.716 0-30.588-12.113-33.24-28.001-2.652 15.888-16.524 28.001-33.24 28.001H.785a.78.78 0 01-.672-1.182l4.955-8.187a48.16 48.16 0 000-49.898L.113 68.594a.766.766 0 01-.093-.57.765.765 0 01.093-.57l4.955-8.186a48.16 48.16 0 000-49.898L.113 1.183A.78.78 0 01.785 0h32.313zm33.24 40.635C64.035 54.432 53.271 65.38 39.529 68.023c13.742 2.643 24.506 13.592 26.809 27.39 2.303-13.798 13.067-24.746 26.808-27.39C79.405 65.38 68.64 54.432 66.338 40.635z" fill="#E24B2C"/></svg>